<?xml version="1.0" encoding="utf-8"?>
<!-- Generator: Adobe Illustrator 25.4.1, SVG Export Plug-In . SVG Version: 6.00 Build 0)  -->
<svg version="1.1" id="Layer_1" xmlns="http://www.w3.org/2000/svg" xmlns:xlink="http://www.w3.org/1999/xlink" x="0px" y="0px"
	 width="32px" height="32px" viewBox="0 0 32 32" style="enable-background:new 0 0 32 32;" xml:space="preserve">
<path d="M32,7c0-1.1-0.9-2-2-2h-0.6h-0.7H15.5l-2,2V5H6V1c0-0.5-0.4-1-1-1c0,0,0,0,0,0C2.2,0,0,2.2,0,5v4.9V27c0,2.8,2.2,5,5,5h4
	l2-2v2h19c1.1,0,2-0.9,2-2V12h-2l2-2V7z M12.1,14.4c0.1-0.3,0.3-0.7,0.4-1c0.1-0.2,0.4-0.4,0.7-0.2c0.2,0.1,0.4,0.4,0.2,0.7
	c-0.1,0.3-0.3,0.6-0.4,0.9c-0.1,0.2-0.3,0.3-0.5,0.3c-0.1,0-0.1,0-0.2,0C12.1,15,12,14.7,12.1,14.4z M11.5,16.4
	c0.1-0.3,0.3-0.4,0.6-0.4c0.3,0.1,0.4,0.3,0.4,0.6c-0.1,0.3-0.1,0.6-0.2,1c0,0.2-0.2,0.4-0.5,0.4c0,0,0,0-0.1,0
	c-0.3,0-0.5-0.3-0.4-0.6C11.4,17.1,11.4,16.8,11.5,16.4z M1,24V9.9V5c0-2.2,1.8-4,4-4v14H3l2,2v5C3.4,22,1.9,22.8,1,24z M6.2,29.6
	c-0.3,0.2-0.6,0.3-0.9,0.5c-0.1,0-0.2,0.1-0.2,0.1c-0.2,0-0.4-0.1-0.4-0.3c-0.1-0.2,0-0.5,0.2-0.7c0.3-0.2,0.6-0.3,0.9-0.5
	c0.2-0.1,0.5-0.1,0.7,0.2C6.5,29.1,6.4,29.4,6.2,29.6z M8.7,27.8c-0.3,0.2-0.5,0.4-0.8,0.6c-0.1,0.1-0.2,0.1-0.3,0.1
	c-0.2,0-0.3-0.1-0.4-0.2c-0.2-0.2-0.1-0.5,0.1-0.7c0.3-0.2,0.5-0.4,0.8-0.6c0.2-0.2,0.5-0.2,0.7,0.1C9,27.3,8.9,27.6,8.7,27.8z
	 M10.8,25.5c-0.2,0.3-0.4,0.6-0.6,0.8c-0.1,0.1-0.2,0.2-0.4,0.2c-0.1,0-0.2,0-0.3-0.1c-0.2-0.2-0.2-0.5-0.1-0.7
	c0.2-0.2,0.4-0.5,0.6-0.8c0.2-0.2,0.5-0.3,0.7-0.1C10.9,25,11,25.3,10.8,25.5z M11.7,24.1c-1.6,0-2.9-1.3-2.9-2.9s1.3-2.9,2.9-2.9
	s2.9,1.3,2.9,2.9S13.3,24.1,11.7,24.1z M15,11.6c-0.2,0.2-0.4,0.4-0.6,0.7c-0.1,0.1-0.2,0.2-0.4,0.2c-0.1,0-0.2,0-0.3-0.1
	c-0.2-0.2-0.2-0.5-0.1-0.7c0.2-0.3,0.5-0.5,0.7-0.8c0.2-0.2,0.5-0.2,0.7,0C15.2,11.1,15.2,11.4,15,11.6z M28,16.6
	c0,0.3,0.1,0.7,0.1,1c0,0.3-0.2,0.5-0.5,0.5c0,0,0,0,0,0c-0.3,0-0.5-0.2-0.5-0.5c0-0.3,0-0.6-0.1-1c0-0.3,0.2-0.5,0.4-0.6
	C27.8,16.1,28,16.3,28,16.6z M28.1,19.7c0,0.3-0.1,0.7-0.1,1c0,0.2-0.3,0.4-0.5,0.4c0,0,0,0-0.1,0c-0.3,0-0.5-0.3-0.4-0.6
	c0-0.3,0.1-0.6,0.1-1c0-0.3,0.3-0.5,0.5-0.5C27.9,19.2,28.1,19.4,28.1,19.7z M27.2,13.6c0.2,0.3,0.3,0.6,0.4,1
	c0.1,0.3,0,0.5-0.3,0.6c-0.1,0-0.1,0-0.2,0c-0.2,0-0.4-0.1-0.5-0.3c-0.1-0.3-0.2-0.6-0.4-0.9c-0.1-0.2,0-0.5,0.2-0.7
	C26.7,13.2,27,13.3,27.2,13.6z M17.4,10.3c-0.3,0.1-0.6,0.2-0.9,0.3c-0.1,0-0.1,0-0.2,0c-0.2,0-0.4-0.1-0.5-0.3
	c-0.1-0.2,0-0.5,0.2-0.7c0.3-0.2,0.7-0.3,1-0.4c0.3-0.1,0.5,0.1,0.6,0.3S17.7,10.2,17.4,10.3z M20.2,10.1
	C20.2,10.1,20.2,10.1,20.2,10.1c-0.4-0.1-0.7-0.1-1-0.1c-0.3,0-0.5-0.2-0.5-0.5C18.7,9.2,19,9,19.2,9c0.3,0,0.7,0,1.1,0.1
	c0.3,0,0.5,0.3,0.4,0.6C20.7,9.9,20.5,10.1,20.2,10.1z M21.1,11c0-1.6,1.3-2.9,2.9-2.9s2.9,1.3,2.9,2.9s-1.3,2.9-2.9,2.9
	S21.1,12.6,21.1,11z M26,28.9c-1.6,0-2.9-1.3-2.9-2.9c0-1.6,1.3-2.9,2.9-2.9c1.6,0,2.9,1.3,2.9,2.9C28.9,27.6,27.6,28.9,26,28.9z"/>
</svg>
