<svg xmlns="http://www.w3.org/2000/svg" viewBox="0 0 32 32">
<path class="st0" d="M14.814682,2.916472c-4.419593,6.09244-0.997272,11.347219-0.997272,11.347219
	c2.954164,4.554929,3.392797,5.639087,3.61999,6.70959c0.227194,1.070505,0.208315,2.067305,0.218615,2.943375
	c0.075756,6.444359-2.953403,7.412653-2.887998,7.505175c11.158465-2.681406,8.443744-14.314327,8.443744-14.314327
	c-0.86705-3.266643-3.873175-6.494238-3.873175-6.494238C13.557574,4.062094,18.355726,0,18.355726,0
	C15.899696,1.264166,14.814682,2.916472,14.814682,2.916472z M12.348395,5.688635c0,0-3.320338,4.401999,0.173813,8.951717
	c0,0,3.209162,4.682147,3.967669,7.100841c0,0,2.147697,8.763504-5.344379,10.258806
	c-0.062724-0.0762,2.875048-2.377083,1.082524-7.364607c0,0-1.730926-3.556002-4.229814-6.867771
	c0,0-2.871024-4.216734,0.699701-8.938018C8.69791,8.829604,10.33652,6.721907,12.348395,5.688635z M30.289793,22.257851
	c0,0-2.16847,0.99684-3.533484,4.905914c0,0-2.762518,5.375431-9.218239,4.326208c0,0,4.235331-1.859829,5.688454-5.371216
	C23.226524,26.118757,24.665087,20.635134,30.289793,22.257851z M2.698404,25.959074
	c-0.170127-0.958632-0.988196-2.658566-0.988196-2.658566c4.374544,0.748314,5.224981,4.316433,5.224981,4.316433
	c0.552008,2.486954,3.082654,4.230167,3.082654,4.230167C4.248454,32.522568,2.698404,25.959074,2.698404,25.959074z
	 M21.881378,4.816083c0,0-0.210257,2.316772,0.74357,3.68252c0,0,1.344526,1.996554-0.093761,5.076332
	c0,0-0.471289-1.213051-0.856441-1.712448C21.674746,11.862485,19.195644,8.198934,21.881378,4.816083z M24.478157,22.301447
	c0,0-1.240274-2.515881,1.669535-5.786829c0,0,1.450268-1.82816,2.382729-2.297236c0,0-0.900913,1.779333-0.945988,3.173638
	C27.584433,17.39102,27.378153,21.889208,24.478157,22.301447z M7.135994,23.399797
	c0.078626-1.977959-1.01469-4.588264-1.01469-4.588264c1.2718,0.759129,3.137621,3.49465,3.137621,3.49465
	c3.784138,4.92658,1.771799,8.360611,1.771799,8.360611C6.96848,29.78714,7.135994,23.399797,7.135994,23.399797z
	 M3.93693,17.268799c0,0,0.176329,1.779692,1.094051,2.672945c0,0,1.303955,1.313038,0.663414,3.846449
	c0,0-0.531295-0.84775-0.894335-1.169115C4.800058,22.619078,2.398337,20.211472,3.93693,17.268799z"/>
</svg>
